HIERARCHY
ROOT Hips
{
 OFFSET 0.000000 0.000000 0.000000
 CHANNELS 6 Xposition Yposition Zposition Yrotation Xrotation Zrotation
 JOINT Chest
 {
  OFFSET 0.000000 10.388337 0.005184
  CHANNELS 3 Yrotation Xrotation Zrotation
  JOINT Chest2
  {
   OFFSET 0.000000 10.458247 -0.010579
   CHANNELS 3 Yrotation Xrotation Zrotation
   JOINT Chest3
   {
    OFFSET 0.000000 10.415828 0.000000
    CHANNELS 3 Yrotation Xrotation Zrotation
    JOINT Chest4
    {
     OFFSET 0.000000 10.405206 0.000000
     CHANNELS 3 Yrotation Xrotation Zrotation
     JOINT Neck
     {
      OFFSET 0.000000 15.720090 0.000000
      CHANNELS 3 Yrotation Xrotation Zrotation
      JOINT Head
      {
       OFFSET 0.000000 9.732643 -0.022378
       CHANNELS 3 Yrotation Xrotation Zrotation
       End Site
       {
        OFFSET 0.000000 18.603619 -0.011814
       }
      }
     }
     JOINT RightCollar
     {
      OFFSET -3.167735 10.388953 0.000000
      CHANNELS 3 Yrotation Xrotation Zrotation
      JOINT RightShoulder
      {
       OFFSET -14.584825 0.000000 0.000000
       CHANNELS 3 Yrotation Xrotation Zrotation
       JOINT RightElbow
       {
        OFFSET 0.000000 -31.921689 0.000000
        CHANNELS 3 Yrotation Xrotation Zrotation
        JOINT RightWrist
        {
         OFFSET 0.000000 -25.835217 0.000000
         CHANNELS 3 Yrotation Xrotation Zrotation
         End Site
         {
          OFFSET 0.000000 -19.128920 0.000000
         }
        }
       }
      }
     }
     JOINT LeftCollar
     {
      OFFSET 3.167735 10.388953 0.000000
      CHANNELS 3 Yrotation Xrotation Zrotation
      JOINT LeftShoulder
      {
       OFFSET 14.584825 0.000000 0.000000
       CHANNELS 3 Yrotation Xrotation Zrotation
       JOINT LeftElbow
       {
        OFFSET 0.000000 -31.921689 0.000000
        CHANNELS 3 Yrotation Xrotation Zrotation
        JOINT LeftWrist
        {
         OFFSET 0.000000 -25.835217 0.000000
         CHANNELS 3 Yrotation Xrotation Zrotation
         End Site
         {
          OFFSET 0.000000 -19.128920 0.000000
         }
        }
       }
      }
     }
    }
   }
  }
 }
 JOINT RightHip
 {
  OFFSET -8.403278 -0.025659 -0.002592
  CHANNELS 3 Yrotation Xrotation Zrotation
  JOINT RightKnee
  {
   OFFSET 0.000000 -44.040977 0.002477
   CHANNELS 3 Yrotation Xrotation Zrotation
   JOINT RightAnkle
   {
    OFFSET 0.000000 -42.951162 0.004189
    CHANNELS 3 Yrotation Xrotation Zrotation
    JOINT RightToe
    {
     OFFSET 0.000000 -5.494238 12.197485
     CHANNELS 3 Yrotation Xrotation Zrotation
     End Site
     {
      OFFSET 0.000000 -1.538716 6.371628
     }
    }
   }
  }
 }
 JOINT LeftHip
 {
  OFFSET 8.403278 -0.025659 -0.002592
  CHANNELS 3 Yrotation Xrotation Zrotation
  JOINT LeftKnee
  {
   OFFSET 0.000000 -44.040977 0.002477
   CHANNELS 3 Yrotation Xrotation Zrotation
   JOINT LeftAnkle
   {
    OFFSET 0.000000 -42.951162 0.004189
    CHANNELS 3 Yrotation Xrotation Zrotation
    JOINT LeftToe
    {
     OFFSET 0.000000 -5.494238 12.197485
     CHANNELS 3 Yrotation Xrotation Zrotation
     End Site
     {
      OFFSET 0.000000 -1.538716 6.371628
     }
    }
   }
  }
 }
}
MOTION
Frames: 11
Frame Time: 0.008333
0.000000 92.319940 0.000000 0.000000 -5.767889 0.000000 0.000000 11.653876 0.000000 0.000000 -5.885988 0.000000 0.000000 -0.000000 0.000000 0.000000 -0.000000 0.000000 0.000000 12.528808 0.000000 0.000000 0.711711 0.000000 0.000000 -0.000000 0.000000 0.000000 0.000000 -90.000000 0.000000 -2.309063 0.000000 0.000000 2.309063 0.000000 0.000000 -0.000000 0.000000 0.000000 -0.000000 90.000000 0.000000 -2.309063 0.000000 0.000000 2.309063 0.000000 0.000000 8.520374 0.000000 0.000000 1.905768 0.000000 -0.000000 -4.658254 0.000000 0.000000 -0.000000 0.000000 0.000000 8.520374 0.000000 0.000000 1.905768 0.000000 -0.000000 -4.658254 0.000000 0.000000 -0.000000 0.000000
18.616122 92.758250 388.152583 105.873255 -2.582993 1.379050 4.831664 2.115409 -2.363457 0.171444 0.068802 -0.088759 0.302844 0.121743 -0.156683 4.669161 1.983146 -2.360601 3.108484 18.730752 9.418047 2.725098 -0.890885 16.273137 4.578510 3.997833 2.701449 5.626658 -11.806107 -8.944827 3.675219 -7.785665 3.944410 0.015731 26.833824 -9.115628 0.722994 3.365764 1.744443 4.131735 -3.019300 6.104026 -1.899715 0.355418 -2.005838 0.013674 -1.748080 0.841715 -2.442539 12.744032 -3.415395 -2.836714 1.759687 -0.824174 -14.228611 -9.671424 3.913981 -0.020903 0.309882 -0.084249 3.038773 -1.976425 3.807529 11.460516 -2.860344 -0.947207 -5.067124 6.993210 -7.927342 -0.042319 -0.158242 -0.116737
18.598135 92.748615 388.234279 105.873578 -2.646273 1.367093 4.775493 2.108615 -2.319660 0.167896 0.068116 -0.086624 0.296670 0.120560 -0.152963 4.621752 1.982194 -2.328301 3.122368 18.789080 9.416384 2.756969 -0.784635 16.263392 4.596409 3.974630 2.676429 5.730507 -11.785331 -9.092444 4.015802 -7.749020 3.814287 0.105450 26.845046 -9.120765 0.728700 3.365450 1.736786 4.129496 -2.926376 6.043294 -1.966128 0.380733 -1.979916 -0.005804 -1.731174 0.838342 -2.446571 12.793869 -3.340557 -2.783504 1.739622 -0.821550 -14.216667 -9.709528 3.831343 -0.017402 0.317817 -0.069630 3.113975 -1.973776 3.855993 11.425733 -2.821838 -0.925279 -5.105080 7.027282 -7.958603 -0.038009 -0.151736 -0.110601
18.580109 92.737863 388.329404 105.886677 -2.725509 1.336928 4.715392 2.113439 -2.258982 0.164512 0.067512 -0.084687 0.290778 0.119521 -0.149589 4.575197 1.982679 -2.299406 3.137187 18.845120 9.419124 2.788940 -0.682445 16.261544 4.609923 3.956355 2.656257 5.851787 -11.758134 -9.233068 4.301150 -7.704384 3.674837 0.201338 26.843876 -9.123308 0.724913 3.360792 1.729526 4.095829 -2.840489 6.002756 -2.014408 0.410809 -1.966427 -0.015090 -1.711063 0.821385 -2.484573 12.849930 -3.228143 -2.712478 1.728127 -0.819344 -14.325257 -9.778393 3.756814 -0.025217 0.362231 -0.066995 3.175085 -1.957472 3.929590 11.390208 -2.792975 -0.904205 -5.137061 7.083970 -7.992456 -0.037100 -0.155529 -0.108148
18.557801 92.726601 388.428415 105.894884 -2.796900 1.325438 4.669336 2.110704 -2.221305 0.161495 0.067022 -0.082954 0.285522 0.118681 -0.146567 4.533009 1.984559 -2.272978 3.150715 18.897690 9.426542 2.816753 -0.586253 16.268840 4.612462 3.941454 2.641934 5.975069 -11.723691 -9.361840 4.549355 -7.653534 3.524145 0.306054 26.829106 -9.121096 0.711365 3.353626 1.721121 4.029057 -2.765409 5.985175 -2.049464 0.445137 -1.962859 -0.018595 -1.687797 0.788986 -2.532276 12.910104 -3.194137 -2.627594 1.714611 -0.807627 -14.043438 -9.838053 3.655013 -0.016405 0.369035 -0.058706 3.235596 -1.943438 3.984021 11.358284 -2.778581 -0.885090 -5.165739 7.145452 -8.024279 -0.035373 -0.153160 -0.106878
18.534662 92.715369 388.530776 105.898685 -2.865820 1.310627 4.634895 2.103193 -2.184313 0.158898 0.066557 -0.081290 0.280998 0.117881 -0.143661 4.497509 1.985401 -2.245585 3.161765 18.947337 9.436562 2.838952 -0.495044 16.281819 4.604001 3.931522 2.630248 6.084129 -11.684730 -9.472045 4.779975 -7.594496 3.357331 0.423814 26.803374 -9.113302 0.689169 3.345031 1.705189 3.932210 -2.700691 5.993424 -2.080187 0.482422 -1.964242 -0.021277 -1.659426 0.741084 -2.569590 12.977827 -3.190313 -2.539084 1.697909 -0.788549 -13.537351 -9.902850 3.534593 0.001776 0.364990 -0.045964 3.295098 -1.926095 4.042323 11.330759 -2.778222 -0.868055 -5.195544 7.218483 -8.052953 -0.034443 -0.152825 -0.108527
18.514004 92.704704 388.632799 105.904949 -2.945800 1.291909 4.600064 2.101458 -2.145501 0.156578 0.066029 -0.079528 0.276959 0.116968 -0.140579 4.467611 1.983646 -2.213959 3.170963 18.994907 9.445937 2.857761 -0.407519 16.294293 4.591162 3.929315 2.616734 6.168691 -11.647279 -9.560004 5.009538 -7.520318 3.172018 0.558899 26.771922 -9.101259 0.663519 3.335553 1.676403 3.806747 -2.643842 6.026208 -2.106242 0.521819 -1.966689 -0.027741 -1.626736 0.683237 -2.591071 13.044043 -3.118116 -2.460677 1.678619 -0.773080 -13.497559 -9.938959 3.446997 0.000688 0.371591 -0.044337 3.349415 -1.890395 4.107353 11.304714 -2.791019 -0.851976 -5.259078 7.300640 -8.083387 -0.035264 -0.157423 -0.114766
18.495859 92.694803 388.732659 105.914686 -3.034385 1.269891 4.561720 2.103544 -2.105743 0.154328 0.065381 -0.077629 0.273042 0.115842 -0.137254 4.440093 1.978625 -2.178312 3.179610 19.039444 9.453291 2.875870 -0.325664 16.303375 4.581132 3.933655 2.600560 6.222044 -11.612079 -9.627581 5.253875 -7.432378 2.969830 0.711263 26.740869 -9.083679 0.641296 3.326639 1.636267 3.655309 -2.593600 6.078845 -2.124347 0.559153 -1.969876 -0.045320 -1.589926 0.624826 -2.592285 13.108394 -2.979424 -2.402436 1.655487 -0.763741 -13.894698 -9.947883 3.390789 -0.018174 0.388736 -0.051435 3.398184 -1.837966 4.176255 11.275328 -2.818166 -0.835664 -5.350224 7.392115 -8.113918 -0.037058 -0.166318 -0.125279
18.477130 92.685530 388.830334 105.917455 -3.113024 1.246066 4.531916 2.094230 -2.066474 0.152173 0.064586 -0.075677 0.269295 0.114456 -0.133835 4.415173 1.969317 -2.140725 3.187640 19.079434 9.458433 2.893059 -0.252282 16.308786 4.569897 3.943041 2.583874 6.248446 -11.577730 -9.682225 5.526107 -7.332805 2.755327 0.871414 26.712468 -9.062226 0.622740 3.322134 1.589677 3.488135 -2.552012 6.147011 -2.142334 0.589013 -1.977544 -0.073343 -1.548501 0.576515 -2.564060 13.178220 -2.881060 -2.362739 1.628000 -0.754246 -13.953999 -9.965763 3.308690 -0.021728 0.393436 -0.046319 3.449613 -1.788036 4.242408 11.237997 -2.859213 -0.818572 -5.430217 7.492571 -8.136148 -0.038025 -0.175083 -0.138789
18.457560 92.676816 388.925386 105.915197 -3.181364 1.222782 4.509650 2.075081 -2.029267 0.150111 0.063654 -0.073778 0.265708 0.112827 -0.130507 4.392157 1.955737 -2.103954 3.196549 19.113837 9.461374 2.911939 -0.189454 16.310113 4.553695 3.955530 2.568240 6.258284 -11.544772 -9.729585 5.833514 -7.220322 2.532879 1.027906 26.686724 -9.040123 0.609287 3.323371 1.545301 3.320054 -2.521841 6.223371 -2.170962 0.609981 -1.991907 -0.104667 -1.510937 0.541989 -2.512112 13.249535 -2.820410 -2.335803 1.600343 -0.746414 -13.712355 -9.994261 3.205808 -0.011715 0.387691 -0.032218 3.498261 -1.743670 4.301618 11.193436 -2.908003 -0.801217 -5.474641 7.597814 -8.145072 -0.037734 -0.180483 -0.153509
18.438610 92.668655 389.017506 105.917954 -3.249214 1.200784 4.485072 2.056747 -1.995003 0.148008 0.062662 -0.071973 0.262048 0.111092 -0.127343 4.367954 1.940473 -2.069637 3.208537 19.141529 9.462061 2.936413 -0.139496 16.306612 4.534405 3.966524 2.552609 6.257091 -11.514282 -9.769651 6.175800 -7.095083 2.304899 1.172972 26.667589 -9.020958 0.605302 3.323668 1.509947 3.163020 -2.501894 6.297797 -2.214252 0.623362 -2.009921 -0.135297 -1.485511 0.521008 -2.451960 13.317999 -2.740367 -2.316929 1.571373 -0.745165 -13.600400 -10.015394 3.115653 -0.006584 0.385027 -0.022271 3.532331 -1.698097 4.365020 11.148239 -2.956602 -0.782677 -5.566392 7.699000 -8.167588 -0.040214 -0.186530 -0.166013
